<mxfile host="app.diagrams.net" agent="Mozilla/5.0 (Macintosh; Intel Mac OS X 10_15_7) AppleWebKit/537.36 (KHTML, like Gecko) Chrome/126.0.0.0 Safari/537.36" version="26.1.0">
  <diagram name="第 1 页" id="VH_rKD5s51sGw98ud1Et">
    <mxGraphModel dx="811" dy="395" grid="1" gridSize="10" guides="1" tooltips="1" connect="1" arrows="1" fold="1" page="1" pageScale="1" pageWidth="827" pageHeight="1169" math="0" shadow="0">
      <root>
        <mxCell id="0" />
        <mxCell id="1" parent="0" />
        <mxCell id="5G6cpnaW76N7grAXLHWP-3" value="" style="edgeStyle=orthogonalEdgeStyle;rounded=0;orthogonalLoop=1;jettySize=auto;html=1;" edge="1" parent="1" source="5G6cpnaW76N7grAXLHWP-1" target="5G6cpnaW76N7grAXLHWP-2">
          <mxGeometry relative="1" as="geometry" />
        </mxCell>
        <mxCell id="5G6cpnaW76N7grAXLHWP-4" style="edgeStyle=orthogonalEdgeStyle;rounded=0;orthogonalLoop=1;jettySize=auto;html=1;exitX=0;exitY=0.5;exitDx=0;exitDy=0;startArrow=classic;startFill=0;endArrow=none;" edge="1" parent="1" source="5G6cpnaW76N7grAXLHWP-1">
          <mxGeometry relative="1" as="geometry">
            <mxPoint x="50" y="370.1428571428571" as="targetPoint" />
          </mxGeometry>
        </mxCell>
        <mxCell id="5G6cpnaW76N7grAXLHWP-1" value="Weight Decomposition" style="rounded=0;whiteSpace=wrap;html=1;" vertex="1" parent="1">
          <mxGeometry x="120" y="350" width="110" height="40" as="geometry" />
        </mxCell>
        <mxCell id="5G6cpnaW76N7grAXLHWP-2" value="Precompute" style="rounded=0;whiteSpace=wrap;html=1;" vertex="1" parent="1">
          <mxGeometry x="280" y="350" width="110" height="40" as="geometry" />
        </mxCell>
      </root>
    </mxGraphModel>
  </diagram>
</mxfile>
